<svg enable-background="new 0 0 288 223" viewBox="0 0 288 223" xmlns="http://www.w3.org/2000/svg"><circle cx="142.8" cy="110" fill="#fff" r="80"/><path d="m191.9 107.9c5.3-2.8 9.3-8.8 9.3-16 0-11-9.5-19.8-21.4-19.8h-31.9v81.7h32.9c17.4 0 25.6-11.7 25.6-23.9.1-10-3.4-17.2-14.5-22zm-26.7-23.7 16.7 9.6-16.7 9.6zm8.3 64.4c-1.1 0-1.9-.9-1.9-1.9 0-1.1.9-1.9 1.9-1.9s1.9.9 1.9 1.9c.1 1-.8 1.9-1.9 1.9zm13.1-8.9c0 1.7-1.4 3.1-3.1 3.1h-20.1c-1.7 0-3.1-1.4-3.1-3.1v-23.9c0-1.7 1.4-3.1 3.1-3.1h20.1c1.7 0 3.1 1.4 3.1 3.1z" fill="#006068"/><path d="m109.8 72c-12.1 0-21.7 8.8-21.7 19.8 0 7.2 4 13.2 9.3 16-11.2 4.8-14.7 12-14.7 22 0 12.2 8.2 23.9 25.9 23.9h33.3l.1-81.7zm-7.8 12.2 1.7 3.5c1.9.8 3.9-.2 4.4-2.2l-1.6-3.3c1 .1 1.9.6 2.6 1.3 1.3 1.3 1.7 3.1 1.2 4.7l4.1 4.1 6.5-6.5c.1-.7.5-1.4 1-1.9 1.2-1.1 3-1.2 4.3-.2l-2.6 1.1c-.6 1.4 0 2.8 1.4 3.2l2.4-1.1c-.1.7-.5 1.3-1 1.8-.9.8-2.1 1.1-3.2.8l-5.9 5.9 6.5 6.5c.7.1 1.4.5 1.9 1 1.1 1.2 1.2 3 .2 4.3l-1.1-2.6c-1.4-.6-2.8 0-3.2 1.4l1.1 2.4c-.7-.1-1.3-.5-1.8-1-.8-.9-1.1-2.1-.8-3.2l-5.9-5.9-4.1 4.1c.5 1.6.1 3.4-1.2 4.7-1.6 1.6-4.2 1.8-6 .5l3.5-1.7c.8-1.9-.2-3.9-2.2-4.4l-3.3 1.6c.1-1 .6-1.9 1.3-2.6 1.3-1.3 3.1-1.7 4.7-1.2l4.1-4.1-4.1-4.1c-1.6.5-3.4.1-4.7-1.2s-1.5-3.9-.2-5.7zm30.3 47.7c0 .1-.1.2-.2.2l-3.4.6c-.4.1-.8.4-.9.8-.3 1.2-.8 2.3-1.4 3.4-.2.4-.2.8 0 1.2l2 2.8c.1.1 0 .2 0 .3l-2.4 2.4c-.1.1-.1.1-.2.1h-.1l-2.8-2c-.3-.3-.8-.3-1.2 0-1.1.6-2.2 1.1-3.4 1.4-.4.1-.7.5-.8.9l-.6 3.4c0 .1-.1.2-.2.2h-3.4c-.1 0-.2-.1-.2-.2l-.6-3.4c-.1-.4-.4-.8-.8-.9-1.2-.3-2.3-.8-3.3-1.4-.2-.1-.4-.1-.5-.1-.2 0-.4.1-.6.2l-2.8 2h-.1s-.1 0-.2-.1l-2.4-2.4c-.1-.1-.1-.2 0-.3l2-2.8c.3-.4.3-.8 0-1.2-.6-1.1-1.1-2.2-1.4-3.4-.1-.4-.5-.7-.9-.8l-3.4-.6c-.1 0-.2-.1-.2-.2v-3.4c0-.1.1-.2.2-.2l3.4-.6c.4-.1.8-.4.9-.8.3-1.2.8-2.3 1.4-3.4.2-.4.2-.8-.1-1.2l-2-2.8c-.1-.1 0-.2 0-.3l2.4-2.4c.1-.1.1-.1.2-.1h.1l2.8 2c.4.3.8.3 1.2 0 1.1-.6 2.2-1.1 3.4-1.4.4-.1.7-.5.8-.9l.6-3.4c0-.1.1-.2.2-.2h3.4c.1 0 .2.1.2.2l.6 3.4c.1.4.4.8.8.9 1.2.3 2.4.8 3.5 1.4.4.2.8.2 1.2 0l2.8-2h.1s.1 0 .2.1l2.4 2.4c.1.1.1.2 0 .3l-2 2.8c-.3.3-.3.8 0 1.2.6 1.1 1.1 2.2 1.4 3.4.1.4.5.7.9.8l3.4.6c.1 0 .2.1.2.2v3.3z" fill="#006068"/><g fill="#522a44"><path d="m177.9 72.7-12.2-5.1c-.8-.3-1.7-.5-2.6-.5l-7.4-.1c1.1 1 1.5 3.2.4 4.6l-3.7 5.1-2.1 2.9 3.6-2.8c1.8-1.4 4.4-2.2 7-2.1l15.9.6c2.1.2 2.9-1.9 1.1-2.6z"/><path d="m141.4 81.8v72.1h7.4v-72.1h-1-5.4z"/><path d="m134.8 71.9c-1.1-.9-1.1-2.2-.6-3.1-4 .1-7.8-.5-11.2-2.3-2.7 4.1-2.7 8.3 0 12.4 5.5-2.1 10.9-2.1 16.4 0 0-.9-.3-1.8-.6-2.5-.9-1.8-2.4-3.2-4-4.5z"/><path d="m123 66h-9.8v13.2h9.8v-.3-12.4z"/><path d="m156.2 71.6c1.1-1.5.7-3.6-.4-4.6-.3-.3-.8-.5-1.3-.5h-2-7.4-7.4-2c-.8 0-1.4.5-1.8 1.2-.6 1.1-.7 2.8.1 4l3.7 5.1 1.6 2.2 1.4 2c.4.6 1 .9 1.7.9h5.4c.6 0 1.2-.3 1.7-.9l.9-1.3 2.1-2.9z"/></g></svg>